# xmcd
# 
# Track frame offsets:
#     150
#     19165
#     32144
#     51743
#     75610
#     101307
#     115141
#     137300
#     153765
#     176387
#     190265
#     212337
# 
# Disc length: 3085
# 
# Revision: 0
# Processed by: cddbd v1.5.2PL0 Copyright (c) Steve Scherf et al.
# Submitted via: fre:ac v1.0.31
# 
DISCID=8f0c0b0c
DTITLE=Poppy Seeds - Ties and Tunes
DYEAR=2017
DGENRE=Celtic
TTITLE0=The Maid on the Green - Victor's Jig - The Jocelyn Tree
TTITLE1=The Bitter Brew
TTITLE2=Poor But Happy at 53 - Nap of the Little Chickens
TTITLE3=The Holly Bush - Farewell to Milltown - The Honeymoon - Lucien's Reel
TTITLE4=Straed an Treiz
TTITLE5=Carry Me Across the Mountain
TTITLE6=Tigh Rabhartaigh - Elizabeth Kelly's Delight - The Beehive
TTITLE7=Down the Broom - Pauline Conneely's - The Mountain Lark
TTITLE8=Lad O'Beirne's - Paddy O'Rafferty's - Aherne's Egg
TTITLE9=The Sun Rises Bright in France
TTITLE10=The Graf Spee - Brendan Ring's - The Old Ruined Cottage in the Glen
TTITLE11=The Vortex - Dashing White Eejit
EXTD=
EXTT0=
EXTT1=
EXTT2=
EXTT3=
EXTT4=
EXTT5=
EXTT6=
EXTT7=
EXTT8=
EXTT9=
EXTT10=
EXTT11=
PLAYORDER=
